<svg xmlns="http://www.w3.org/2000/svg" width="60" height="60" viewBox="0 0 60 60">
  <g id="tailwind" transform="translate(199 -1269)">
    <rect id="Rectángulo_6" data-name="Rectángulo 6" width="60" height="60" transform="translate(-199 1269)" fill="none"/>
    <path id="tailwindcss-icon" d="M15,24.8q3-12,15-12c12,0,13.5,9,19.5,10.5q6,1.5,10.5-4.5-3,12-15,12c-12,0-13.5-9-19.5-10.5q-6-1.5-10.5,4.5ZM0,42.8q3-12,15-12c12,0,13.5,9,19.5,10.5q6,1.5,10.5-4.5-3,12-15,12c-12,0-13.5-9-19.5-10.5Q4.5,36.8,0,42.8Z" transform="translate(-199 1268.2)" fill="#3d3d3d" fill-rule="evenodd"/>
  </g>
</svg>
