<svg xmlns="http://www.w3.org/2000/svg" width="1280" height="1337.346" viewBox="0 0 1280 1337.346">
  <g id="bg-1" transform="translate(0 -95)">
    <g id="_12sfaf" data-name="12sfaf" transform="translate(0 95)">
      <path id="Trazado_6" data-name="Trazado 6" d="M0,186.967C64,161.373,192,60.416,320,58.994s192,109.63,320,120.863,192-61.569,320-64.7,256,39.245,320,49.056V203.79H0Z" transform="translate(0 -58.98)" fill="#fff"/>
    </g>
    <g id="wave2" transform="translate(0 1278.777)">
      <path id="Trazado_8" data-name="Trazado 8" d="M1280,321.8c-51.2,16.45-153.6,69.55-256,82.251S870.4,374.3,768,385.3s-153.6,81.283-256,73.784-153.6-98.1-256-111.28S51.2,384.093,0,393.165V306.076H1280Z" transform="translate(0 -306.076)" fill="#fff"/>
    </g>
    <rect id="Rectángulo_7" data-name="Rectángulo 7" width="1280" height="1065" transform="translate(0 232)" fill="#fff"/>
  </g>
</svg>
